<svg width="20" height="20" viewBox="0 0 20 20" fill="none" xmlns="http://www.w3.org/2000/svg">
<path d="M14.9017 16.0809C13.436 17.0105 11.7356 17.5028 9.99999 17.5001C5.50666 17.5001 1.76833 14.2667 0.984161 10.0001C1.34252 8.05899 2.31885 6.2858 3.76749 4.94506L1.15999 2.34006L2.33916 1.16089L18.8383 17.6609L17.6592 18.8392L14.9008 16.0809H14.9017ZM4.94583 6.12505C3.81333 7.15471 3.02443 8.50737 2.68583 10.0001C2.94607 11.1388 3.46855 12.201 4.21166 13.1022C4.95478 14.0034 5.89802 14.7187 6.96629 15.1911C8.03456 15.6636 9.19837 15.8801 10.3651 15.8235C11.5318 15.7669 12.6691 15.4387 13.6867 14.8651L11.9967 13.1751C11.2772 13.6282 10.4252 13.8235 9.58019 13.7288C8.73522 13.634 7.94753 13.255 7.3463 12.6537C6.74508 12.0525 6.36602 11.2648 6.2713 10.4199C6.17657 9.57489 6.37181 8.72281 6.82499 8.00339L4.94583 6.12505ZM10.7617 11.9401L8.05999 9.23839C7.91172 9.61584 7.87682 10.0284 7.95958 10.4253C8.04235 10.8223 8.23918 11.1865 8.52593 11.4733C8.81268 11.76 9.17688 11.9569 9.57387 12.0396C9.97087 12.1224 10.3834 12.0875 10.7608 11.9392L10.7617 11.9401ZM17.3392 13.8267L16.1467 12.6351C16.7037 11.8411 17.1003 10.946 17.3142 10.0001C17.0877 9.00816 16.6619 8.07268 16.0626 7.25047C15.4634 6.42826 14.7032 5.73649 13.8282 5.21723C12.9533 4.69796 11.9819 4.36203 10.9731 4.22986C9.96431 4.09769 8.93917 4.17204 7.95999 4.44839L6.64499 3.13339C7.68416 2.72506 8.81666 2.50006 9.99999 2.50006C14.4933 2.50006 18.2317 5.73339 19.0158 10.0001C18.7605 11.3881 18.1865 12.698 17.3392 13.8267ZM9.76916 6.25672C10.2996 6.22394 10.8309 6.30428 11.3279 6.4924C11.825 6.68053 12.2763 6.97215 12.6521 7.34793C13.0279 7.72371 13.3195 8.17508 13.5076 8.6721C13.6958 9.16913 13.7761 9.70046 13.7433 10.2309L9.76833 6.25672H9.76916Z" fill="#FF4D4D"/>
</svg>
