<svg width="24" height="24" viewBox="0 0 24 24" fill="none" xmlns="http://www.w3.org/2000/svg">
<g clip-path="url(#clip0_0_11)">
<path opacity="0.939" fill-rule="evenodd" clip-rule="evenodd" d="M10.8638 -0.0234576C11.4789 -0.0234576 12.094 -0.0234576 12.709 -0.0234576C15.6406 0.49407 17.6012 2.18157 18.5907 5.03904C19.3392 7.95855 18.6549 10.4664 16.5379 12.5625C16.3664 12.7211 16.1819 12.8618 15.9843 12.9843C17.0146 14.5937 18.0449 16.2031 19.0751 17.8125C20.459 17.2955 21.6969 17.5377 22.7886 18.539C23.1544 18.97 23.4235 19.4544 23.5959 19.9921C23.5959 20.5234 23.5959 21.0547 23.5959 21.5859C23.247 22.7806 22.4935 23.5775 21.3355 23.9765C20.7666 23.9765 20.1976 23.9765 19.6287 23.9765C17.8153 23.3083 17.0542 21.9958 17.3452 20.039C17.502 19.3488 17.848 18.7785 18.3831 18.3281C17.3541 16.6972 16.3085 15.08 15.2462 13.4765C14.3027 14.02 13.2878 14.3169 12.2016 14.3672C12.2016 15.4453 12.2016 16.5234 12.2016 17.6015C13.9108 17.9401 14.8334 18.9947 14.9695 20.7656C14.9123 22.023 14.3588 22.9762 13.3087 23.625C12.9953 23.7857 12.6724 23.9029 12.34 23.9765C11.9709 23.9765 11.6019 23.9765 11.2329 23.9765C9.95959 23.6839 9.12158 22.9027 8.71872 21.6328C8.41075 20.1335 8.86435 18.9382 10.0796 18.0468C10.4753 17.7904 10.9058 17.642 11.3712 17.6015C11.3712 16.5234 11.3712 15.4453 11.3712 14.3672C10.285 14.3169 9.27017 14.02 8.32661 13.4765C7.2644 15.08 6.21875 16.6972 5.18971 18.3281C6.2443 19.341 6.54416 20.5519 6.08926 21.9609C5.61222 23.0499 4.80493 23.7217 3.66739 23.9765C3.29834 23.9765 2.92929 23.9765 2.56025 23.9765C1.18001 23.6521 0.318902 22.7927 -0.0230852 21.3984C-0.0230852 20.9921 -0.0230852 20.5859 -0.0230852 20.1796C0.479594 18.3655 1.66362 17.4983 3.52899 17.5781C3.86083 17.6388 4.18375 17.717 4.49774 17.8125C5.52798 16.2031 6.55827 14.5937 7.58851 12.9843C5.51156 11.3642 4.55049 9.21569 4.70533 6.53903C5.03761 3.72993 6.46001 1.72212 8.97244 0.515604C9.59055 0.268915 10.221 0.089227 10.8638 -0.0234576ZM11.1406 0.820291C11.2175 0.820291 11.2943 0.820291 11.3712 0.820291C11.3712 1.07029 11.3712 1.32029 11.3712 1.57029C10.1749 1.67841 9.11388 2.11591 8.18821 2.88279C8.01209 2.72728 7.84293 2.56321 7.68078 2.3906C8.67776 1.50902 9.83103 0.985591 11.1406 0.820291ZM12.2016 0.820291C13.6076 0.928985 14.8378 1.45242 15.8921 2.3906C15.7299 2.56321 15.5608 2.72728 15.3846 2.88279C14.4591 2.11594 13.3981 1.67844 12.2016 1.57029C12.2016 1.32029 12.2016 1.07029 12.2016 0.820291ZM11.2329 2.41404C13.4756 2.29897 15.0979 3.25209 16.0997 5.27341C16.8593 7.38067 16.4519 9.21658 14.8772 10.7812C13.3048 12.0481 11.5979 12.2825 9.75667 11.4843C7.78748 10.3811 6.91865 8.68581 7.15027 6.39841C7.64775 4.15061 9.00861 2.82248 11.2329 2.41404ZM7.03494 3.02341C7.23815 3.15915 7.42267 3.32322 7.58851 3.5156C6.81559 4.43872 6.37735 5.50905 6.27378 6.72653C6.02394 6.77992 5.77022 6.78775 5.51262 6.74997C5.64709 5.34471 6.15453 4.1025 7.03494 3.02341ZM16.4456 3.02341C16.4797 3.01727 16.5105 3.02509 16.5379 3.04685C17.4248 4.11553 17.9323 5.34991 18.0602 6.74997C17.8026 6.78775 17.5489 6.77992 17.2991 6.72653C17.1955 5.50905 16.7573 4.43872 15.9843 3.5156C16.1475 3.35767 16.3013 3.19361 16.4456 3.02341ZM11.3251 4.47654C11.3711 5.18707 11.3865 5.9058 11.3712 6.63278C10.8881 6.44974 10.6421 6.09035 10.6332 5.55466C10.6678 5.06172 10.8985 4.70233 11.3251 4.47654ZM5.55875 7.61716C5.80477 7.61716 6.05083 7.61716 6.29685 7.61716C6.37827 8.83666 6.80881 9.90695 7.58851 10.8281C7.42636 11.0007 7.2572 11.1647 7.08107 11.3203C6.15232 10.2717 5.64488 9.03733 5.55875 7.61716ZM17.276 7.61716C17.522 7.61716 17.7681 7.61716 18.0141 7.61716C17.9279 9.03747 17.4205 10.2719 16.4918 11.3203C16.3156 11.1647 16.1465 11.0007 15.9843 10.8281C16.764 9.90695 17.1946 8.83666 17.276 7.61716ZM12.2016 7.71091C12.7625 7.95972 13.0009 8.39725 12.9166 9.02341C12.8034 9.40413 12.5727 9.68537 12.2247 9.86716C12.2016 9.14856 12.1939 8.42983 12.2016 7.71091ZM8.14208 11.4609C8.8579 12.0198 9.65748 12.4183 10.5409 12.6562C10.8153 12.715 11.0921 12.7541 11.3712 12.7734C11.3712 13.0234 11.3712 13.2734 11.3712 13.5234C9.96075 13.4236 8.73058 12.9002 7.68078 11.9531C7.84394 11.7952 7.99774 11.6311 8.14208 11.4609ZM15.3385 11.4609C15.5417 11.5967 15.7262 11.7607 15.8921 11.9531C14.8423 12.9002 13.6121 13.4236 12.2016 13.5234C12.2016 13.2734 12.2016 13.0234 12.2016 12.7734C13.3984 12.6914 14.444 12.2539 15.3385 11.4609ZM2.83703 18.3984C4.25215 18.3756 5.12093 19.0631 5.44343 20.4609C5.49888 21.8415 4.87611 22.7243 3.57512 23.1093C2.14623 23.2391 1.2313 22.6063 0.830336 21.2109C0.728309 19.6983 1.39721 18.7608 2.83703 18.3984ZM11.4635 18.3984C13.0472 18.3983 13.939 19.1952 14.1391 20.789C14.0705 21.8659 13.5477 22.608 12.5707 23.0156C11.2618 23.3463 10.2853 22.9166 9.64134 21.7265C9.20674 20.4106 9.56808 19.3872 10.7254 18.6562C10.972 18.5545 11.218 18.4686 11.4635 18.3984ZM20.1361 18.3984C21.1795 18.3463 21.9714 18.7682 22.5119 19.664C23.0321 20.9167 22.763 21.9557 21.7046 22.7812C20.5577 23.3888 19.5352 23.2247 18.6369 22.289C17.9689 21.3406 17.9382 20.3719 18.5446 19.3828C18.9684 18.8642 19.4989 18.5361 20.1361 18.3984Z" fill="white"/>
<path opacity="0.941" fill-rule="evenodd" clip-rule="evenodd" d="M11.6018 3.16406C11.7623 3.14925 11.9161 3.17269 12.0631 3.23437C12.1372 3.35356 12.1987 3.47856 12.2476 3.60937C13.0637 3.84481 13.5634 4.38387 13.7469 5.22655C13.8942 5.76697 13.7019 6.00913 13.1703 5.95312C13.1043 5.93132 13.0505 5.89222 13.0088 5.83593C12.9952 5.22965 12.7339 4.77655 12.2246 4.47655C12.2015 5.25763 12.1938 6.0389 12.2015 6.8203C13.2049 7.0768 13.7277 7.73305 13.77 8.78905C13.7116 9.80169 13.2042 10.4579 12.2476 10.7578C12.1705 11.1175 11.9552 11.2503 11.6018 11.1562C11.4478 11.0704 11.3555 10.9376 11.325 10.7578C10.2237 10.4086 9.73937 9.65863 9.87191 8.5078C10.0259 8.37571 10.2027 8.33666 10.4024 8.39061C10.5989 8.55055 10.6835 8.76149 10.6561 9.02342C10.7694 9.40414 11 9.68539 11.3481 9.86717C11.3789 9.10157 11.3789 8.33591 11.3481 7.5703C10.1314 7.1451 9.63936 6.28574 9.87191 4.99218C10.1194 4.27181 10.6038 3.81087 11.325 3.60937C11.3629 3.42001 11.4552 3.27157 11.6018 3.16406ZM11.325 4.47655C10.8984 4.70235 10.6677 5.06174 10.6331 5.55468C10.642 6.09036 10.888 6.44976 11.3712 6.6328C11.3864 5.90582 11.371 5.18708 11.325 4.47655ZM12.2015 7.71093C12.1938 8.42985 12.2015 9.14858 12.2246 9.86717C12.5726 9.68539 12.8033 9.40414 12.9165 9.02342C13.0008 8.39727 12.7624 7.95974 12.2015 7.71093Z" fill="white"/>
<path opacity="0.916" fill-rule="evenodd" clip-rule="evenodd" d="M2.88321 19.1484C3.42652 19.0987 3.61873 19.3331 3.45985 19.8515C3.41821 19.9078 3.36439 19.9469 3.29839 19.9687C2.69817 19.9724 2.38295 20.277 2.3527 20.8828C2.13198 21.2745 1.87057 21.3058 1.56848 20.9765C1.51321 19.9934 1.95146 19.3841 2.88321 19.1484Z" fill="white"/>
<path opacity="0.917" fill-rule="evenodd" clip-rule="evenodd" d="M11.5558 19.1484C12.0905 19.1127 12.275 19.3471 12.1094 19.8515C12.0633 19.8905 12.0171 19.9296 11.971 19.9687C11.6502 19.9678 11.3811 20.085 11.1637 20.3203C11.0733 20.5771 10.9887 20.8349 10.91 21.0937C10.518 21.293 10.272 21.1758 10.1719 20.7421C10.2622 19.8696 10.7235 19.3383 11.5558 19.1484Z" fill="white"/>
<path opacity="0.915" fill-rule="evenodd" clip-rule="evenodd" d="M20.2283 19.1484C20.7294 19.1023 20.9215 19.321 20.805 19.8046C20.749 19.8772 20.6798 19.9319 20.5974 19.9687C20.0054 20.0077 19.6901 20.3281 19.6517 20.9296C19.3903 21.3046 19.1289 21.3046 18.8675 20.9296C18.8474 19.9583 19.301 19.3646 20.2283 19.1484Z" fill="white"/>
</g>
<defs>
<clipPath id="clip0_0_11">
<rect width="23.2301" height="23.6048" fill="white" transform="scale(1.01674)"/>
</clipPath>
</defs>
</svg>
