<svg width="14" height="17" viewBox="0 0 14 17" fill="none" xmlns="http://www.w3.org/2000/svg">
<path d="M13.9999 13.537V14.3332H0V13.537L1.55555 11.9444V7.16662C1.55555 4.69812 3.13442 2.52424 5.44441 1.82351V1.59258C5.44441 1.1702 5.6083 0.765124 5.90002 0.466457C6.19174 0.167789 6.5874 0 6.99996 0C7.41251 0 7.80817 0.167789 8.09989 0.466457C8.39161 0.765124 8.5555 1.1702 8.5555 1.59258V1.82351C10.8655 2.52424 12.4444 4.69812 12.4444 7.16662V11.9444L13.9999 13.537ZM8.5555 15.1295C8.5555 15.5519 8.39161 15.957 8.09989 16.2557C7.80817 16.5543 7.41251 16.7221 6.99996 16.7221C6.5874 16.7221 6.19174 16.5543 5.90002 16.2557C5.6083 15.957 5.44441 15.5519 5.44441 15.1295" fill="#FAFF00"/>
</svg>
