<svg width="14" height="13" viewBox="0 0 14 13" fill="none" xmlns="http://www.w3.org/2000/svg">
<path d="M13.779 5.38174L7.36232 0.131745C7.25813 0.0465452 7.12767 0 6.99307 0C6.85848 0 6.72802 0.0465452 6.62382 0.131745L0.207163 5.38174C0.0901026 5.48051 0.0165837 5.62136 0.00248003 5.77386C-0.0116236 5.92637 0.0348197 6.07831 0.131782 6.19687C0.228744 6.31543 0.368445 6.3911 0.520721 6.40754C0.672997 6.42398 0.825629 6.37987 0.945662 6.28474L1.74308 5.63257V12.2499C1.74308 12.4046 1.80454 12.553 1.91393 12.6624C2.02333 12.7718 2.1717 12.8332 2.32641 12.8332H5.82641V9.33324H8.15974V12.8332H11.6597C11.8144 12.8332 11.9628 12.7718 12.0722 12.6624C12.1816 12.553 12.2431 12.4046 12.2431 12.2499V5.63257L13.0405 6.28474C13.0996 6.33463 13.1681 6.37225 13.2419 6.39543C13.3157 6.41861 13.3933 6.42688 13.4704 6.41976C13.5474 6.41263 13.6222 6.39026 13.6905 6.35394C13.7588 6.31762 13.8192 6.26808 13.8682 6.2082C13.9172 6.14831 13.9538 6.07929 13.9758 6.00514C13.9978 5.93099 14.0049 5.8532 13.9966 5.77629C13.9883 5.69938 13.9648 5.62489 13.9274 5.55715C13.8901 5.48942 13.8396 5.42979 13.779 5.38174Z" fill="white"/>
</svg>
