<svg width="30" height="28" viewBox="0 0 30 28" fill="none" xmlns="http://www.w3.org/2000/svg">
<path d="M20.6654 24.2587H2.79792C2.65344 24.2587 2.51488 24.3161 2.41272 24.4182C2.31057 24.5204 2.25317 24.6589 2.25317 24.8034C2.25317 24.9479 2.31057 25.0864 2.41272 25.1886C2.51488 25.2908 2.65344 25.3481 2.79792 25.3481H20.6654C20.8099 25.3481 20.9485 25.2908 21.0506 25.1886C21.1528 25.0864 21.2102 24.9479 21.2102 24.8034C21.2102 24.6589 21.1528 24.5204 21.0506 24.4182C20.9485 24.3161 20.8099 24.2587 20.6654 24.2587Z" fill="white"/>
<path d="M4.24903 17.3688C4.67999 17.3688 5.10127 17.241 5.4596 17.0016C5.81793 16.7621 6.09722 16.4218 6.26214 16.0237C6.42706 15.6255 6.47021 15.1874 6.38613 14.7647C6.30206 14.3421 6.09453 13.9538 5.7898 13.6491C5.48506 13.3443 5.09681 13.1368 4.67413 13.0527C4.25145 12.9687 3.81333 13.0118 3.41518 13.1767C3.01703 13.3417 2.67672 13.6209 2.43729 13.9793C2.19786 14.3376 2.07007 14.7589 2.07007 15.1898C2.07007 15.7677 2.29964 16.322 2.70827 16.7306C3.11691 17.1392 3.67114 17.3688 4.24903 17.3688ZM4.24903 14.1003C4.46451 14.1003 4.67515 14.1642 4.85432 14.284C5.03348 14.4037 5.17312 14.5738 5.25558 14.7729C5.33805 14.972 5.35962 15.191 5.31758 15.4024C5.27555 15.6137 5.17178 15.8078 5.01942 15.9602C4.86705 16.1126 4.67292 16.2163 4.46158 16.2584C4.25024 16.3004 4.03118 16.2788 3.83211 16.1964C3.63303 16.1139 3.46288 15.9743 3.34316 15.7951C3.22345 15.616 3.15955 15.4053 3.15955 15.1898C3.1584 15.046 3.18573 14.9034 3.23997 14.7702C3.2942 14.637 3.37427 14.5159 3.47556 14.4138C3.57684 14.3117 3.69733 14.2307 3.83008 14.1754C3.96284 14.1201 4.10523 14.0916 4.24903 14.0916V14.1003Z" fill="white"/>
<path d="M8.64602 5.73756C8.64602 5.3066 8.51822 4.88532 8.2788 4.52699C8.03937 4.16866 7.69906 3.88938 7.30091 3.72446C6.90275 3.55954 6.46464 3.51639 6.04196 3.60046C5.61928 3.68454 5.23103 3.89206 4.92629 4.1968C4.62156 4.50153 4.41403 4.88979 4.32996 5.31247C4.24588 5.73514 4.28903 6.17326 4.45395 6.57141C4.61887 6.96957 4.89816 7.30988 5.25648 7.5493C5.61481 7.78873 6.03609 7.91653 6.46705 7.91653C7.04495 7.91653 7.59918 7.68696 8.00781 7.27832C8.41645 6.86969 8.64602 6.31546 8.64602 5.73756ZM5.41243 5.73756C5.41243 5.52553 5.47531 5.31826 5.59311 5.14196C5.71091 4.96566 5.87834 4.82826 6.07423 4.74711C6.27012 4.66597 6.48567 4.64474 6.69363 4.68611C6.90159 4.72747 7.09261 4.82958 7.24254 4.97951C7.39247 5.12943 7.49457 5.32046 7.53594 5.52841C7.5773 5.73637 7.55607 5.95192 7.47493 6.14782C7.39379 6.34371 7.25638 6.51114 7.08008 6.62894C6.90379 6.74674 6.69652 6.80961 6.48448 6.80961C6.20016 6.80961 5.92748 6.69666 5.72643 6.49562C5.52538 6.29457 5.41243 6.02189 5.41243 5.73756Z" fill="white"/>
<path d="M16.8347 7.90334C17.2657 7.90334 17.687 7.77555 18.0453 7.53612C18.4036 7.29669 18.6829 6.95638 18.8478 6.55823C19.0128 6.16008 19.0559 5.72196 18.9718 5.29928C18.8877 4.8766 18.6802 4.48835 18.3755 4.18362C18.0708 3.87888 17.6825 3.67136 17.2598 3.58728C16.8371 3.5032 16.399 3.54635 16.0009 3.71128C15.6027 3.8762 15.2624 4.15548 15.023 4.51381C14.7836 4.87214 14.6558 5.29342 14.6558 5.72438C14.6558 6.30227 14.8853 6.8565 15.294 7.26514C15.7026 7.67377 16.2568 7.90334 16.8347 7.90334ZM16.8347 4.66976C17.0468 4.66976 17.254 4.73263 17.4303 4.85043C17.6066 4.96823 17.744 5.13566 17.8252 5.33155C17.9063 5.52744 17.9275 5.743 17.8862 5.95096C17.8448 6.15891 17.7427 6.34993 17.5928 6.49986C17.4429 6.64979 17.2518 6.75189 17.0439 6.79326C16.8359 6.83463 16.6204 6.8134 16.4245 6.73225C16.2286 6.65111 16.0611 6.51371 15.9434 6.33741C15.8256 6.16111 15.7627 5.95384 15.7627 5.74181C15.7621 5.60066 15.7894 5.46079 15.843 5.33021C15.8966 5.19964 15.9755 5.08095 16.0751 4.98093C16.1747 4.88092 16.2931 4.80157 16.4235 4.74742C16.5538 4.69327 16.6936 4.6654 16.8347 4.6654V4.66976Z" fill="white"/>
<path d="M29.7908 13.7735C29.7259 13.7222 29.6502 13.6865 29.5693 13.6692C29.4885 13.6518 29.4047 13.6532 29.3245 13.6733L22.8791 15.2509V12.1393C22.878 11.7305 22.7151 11.3388 22.426 11.0497C22.137 10.7606 21.7452 10.5977 21.3364 10.5966H19.8286C20.5905 10.131 21.2328 9.49353 21.7041 8.73511C22.1753 7.97669 22.4623 7.11844 22.5422 6.22913C22.6221 5.33981 22.4926 4.44415 22.1641 3.61389C21.8355 2.78363 21.3171 2.04185 20.6504 1.44799C19.9836 0.854116 19.187 0.424662 18.3244 0.194028C17.4618 -0.0366067 16.5572 -0.0620106 15.683 0.119851C14.8088 0.301712 13.9894 0.685784 13.2903 1.2413C12.5913 1.79681 12.0321 2.50832 11.6575 3.31884C11.2817 2.50927 10.7216 1.79892 10.0221 1.24464C9.32252 0.690358 8.50292 0.307549 7.62888 0.126849C6.75484 -0.0538497 5.85063 -0.0274188 4.98864 0.204026C4.12664 0.435472 3.3308 0.865503 2.66482 1.4597C1.99884 2.05389 1.48121 2.79575 1.15337 3.62588C0.825535 4.45602 0.696591 5.35137 0.776863 6.24028C0.857134 7.12919 1.14439 7.98696 1.61564 8.74493C2.08689 9.5029 2.72905 10.14 3.4907 10.6053H1.54707C1.13901 10.6053 0.747479 10.7665 0.457721 11.0538C0.167963 11.3411 0.00344833 11.7313 0 12.1393V26.2023C0.00114993 26.6111 0.164054 27.0029 0.453119 27.2919C0.742184 27.581 1.13391 27.7439 1.54271 27.745H21.3364C21.7452 27.7439 22.137 27.581 22.426 27.2919C22.7151 27.0029 22.878 26.6111 22.8791 26.2023V23.7575L29.3245 25.3351C29.3679 25.3404 29.4118 25.3404 29.4553 25.3351C29.5997 25.3351 29.7383 25.2777 29.8405 25.1756C29.9426 25.0734 30 24.9348 30 24.7904V14.2006C29.9997 14.1182 29.9807 14.037 29.9445 13.963C29.9082 13.889 29.8557 13.8243 29.7908 13.7735ZM16.8347 1.10937C17.7511 1.10937 18.6469 1.38117 19.4088 1.89038C20.1707 2.3996 20.7645 3.12335 21.115 3.97008C21.4655 4.81681 21.5569 5.74847 21.3778 6.6472C21.1987 7.54594 20.7571 8.37136 20.1088 9.01905C19.4605 9.66674 18.6347 10.1076 17.7358 10.2858C16.8369 10.4641 15.9053 10.3717 15.0589 10.0204C14.2125 9.66916 13.4893 9.07472 12.9808 8.31234C12.4723 7.54996 12.2013 6.65389 12.2022 5.73749C12.2045 4.50999 12.6935 3.33349 13.5618 2.46592C14.4302 1.59835 15.6072 1.11052 16.8347 1.10937ZM1.85212 5.73749C1.85212 4.82127 2.12381 3.92563 2.63283 3.16382C3.14186 2.40201 3.86535 1.80826 4.71183 1.45763C5.5583 1.10701 6.48974 1.01527 7.38835 1.19402C8.28697 1.37276 9.1124 1.81397 9.76026 2.46183C10.4081 3.10969 10.8493 3.93512 11.0281 4.83374C11.2068 5.73235 11.1151 6.66379 10.7645 7.51026C10.4138 8.35674 9.82008 9.08023 9.05827 9.58926C8.29646 10.0983 7.40082 10.37 6.4846 10.37C5.25635 10.3688 4.07873 9.88038 3.21022 9.01187C2.34171 8.14336 1.85327 6.96574 1.85212 5.73749ZM11.6618 8.15614C12.1357 9.16512 12.8928 10.0145 13.8408 10.6009H9.48286C10.4286 10.015 11.184 9.16728 11.6575 8.1605L11.6618 8.15614ZM21.794 26.198C21.794 26.3136 21.7481 26.4244 21.6664 26.5061C21.5846 26.5879 21.4738 26.6338 21.3582 26.6338H1.54707C1.43149 26.6338 1.32064 26.5879 1.23891 26.5061C1.15719 26.4244 1.11127 26.3136 1.11127 26.198V12.1393C1.11127 12.0237 1.15719 11.9129 1.23891 11.8311C1.32064 11.7494 1.43149 11.7035 1.54707 11.7035H21.3364C21.452 11.7035 21.5629 11.7494 21.6446 11.8311C21.7263 11.9129 21.7722 12.0237 21.7722 12.1393L21.794 26.198ZM28.9105 24.1062L22.8791 22.6332V16.3708L28.9062 14.8935L28.9105 24.1062Z" fill="white"/>
</svg>
