<svg width="188" height="191" viewBox="0 0 188 191" fill="none" xmlns="http://www.w3.org/2000/svg">
<path d="M94 190.825C145.915 190.825 188 188.368 188 185.337C188 182.306 145.915 179.849 94 179.849C42.0852 179.849 0 182.306 0 185.337C0 188.368 42.0852 190.825 94 190.825Z" fill="#E6DDFF"/>
<path d="M128.428 184.151H49.4536C48.3533 184.162 47.2627 183.945 46.2511 183.512C45.2395 183.079 44.329 182.441 43.5779 181.637C42.8267 180.833 42.2511 179.881 41.8879 178.842C41.5247 177.804 41.3818 176.701 41.4682 175.604L52.4895 8.54696C52.674 6.2453 53.7091 4.09484 55.3929 2.5148C57.0767 0.93476 59.2885 0.0383774 61.5973 0.000389608H140.565C141.665 -0.0105149 142.755 0.20759 143.766 0.640824C144.776 1.07406 145.686 1.71294 146.436 2.51682C147.187 3.32071 147.762 4.27198 148.125 5.31014C148.487 6.34831 148.63 7.45063 148.544 8.54696L137.536 175.604C137.351 177.906 136.316 180.056 134.633 181.636C132.949 183.216 130.737 184.113 128.428 184.151Z" fill="#FF4D4D"/>
<path d="M145.055 44.9239H135.494C135.229 44.9266 134.965 44.874 134.721 44.7695C134.477 44.665 134.258 44.5109 134.077 44.3169C133.895 44.123 133.756 43.8934 133.669 43.6429C133.581 43.3923 133.546 43.1263 133.567 42.8616L134.52 28.392C134.574 27.8418 134.828 27.3306 135.235 26.9563C135.641 26.582 136.172 26.3709 136.725 26.3635H146.279C146.541 26.3612 146.801 26.4128 147.043 26.5153C147.284 26.6177 147.502 26.7688 147.683 26.959C147.864 27.1493 148.003 27.3746 148.093 27.6211C148.183 27.8677 148.221 28.13 148.206 28.392L147.252 42.8616C147.209 43.4173 146.959 43.9366 146.553 44.3181C146.146 44.6995 145.612 44.9155 145.055 44.9239Z" fill="#FF4D4D"/>
<path d="M127.225 184.151H48.25C47.1501 184.161 46.0599 183.943 45.0488 183.51C44.0376 183.077 43.1277 182.438 42.3767 181.634C41.6257 180.831 41.0501 179.879 40.6865 178.841C40.3229 177.803 40.1793 176.701 40.2646 175.604L51.313 8.54688C51.4975 6.24522 52.5326 4.09476 54.2164 2.51472C55.9002 0.934677 58.112 0.0382938 60.4208 0.000306052H139.395C140.491 -0.00401064 141.576 0.218951 142.581 0.655102C143.586 1.09125 144.49 1.73112 145.235 2.53428C145.981 3.33744 146.551 4.28644 146.911 5.32134C147.271 6.35624 147.413 7.45454 147.327 8.54688L136.332 175.604C136.148 177.906 135.113 180.056 133.429 181.636C131.745 183.216 129.533 184.113 127.225 184.151Z" fill="#FF4D4D"/>
<path d="M130.808 164.691H47.2561C46.6311 164.697 46.0116 164.574 45.4369 164.328C44.8623 164.082 44.3452 163.719 43.9184 163.263C43.4917 162.806 43.1646 162.266 42.9582 161.676C42.7517 161.086 42.6703 160.459 42.7191 159.836L52.3137 14.3956C52.4174 13.0915 53.0022 11.8725 53.9543 10.9754C54.9064 10.0782 56.158 9.56694 57.466 9.54087H141.039C141.663 9.53426 142.283 9.65784 142.858 9.90373C143.432 10.1496 143.949 10.5124 144.376 10.9691C144.803 11.4257 145.13 11.9662 145.336 12.5561C145.543 13.1461 145.624 13.7725 145.575 14.3956L135.981 159.836C135.877 161.144 135.289 162.365 134.333 163.263C133.376 164.161 132.12 164.67 130.808 164.691Z" fill="white"/>
<path d="M115.223 9.54086H98.6302L58.4329 164.691H75.0257L115.223 9.54086Z" fill="#EDEFF7"/>
<path d="M129.841 9.54086H121.545L81.3477 164.691H89.6441L129.841 9.54086Z" fill="#EDEFF7"/>
<path opacity="0.2" d="M92.0523 176.242C94.2209 174.144 94.3877 170.799 92.4248 168.77C90.462 166.741 87.1127 166.796 84.9441 168.894C82.7754 170.992 82.6086 174.338 84.5715 176.367C86.5344 178.396 89.8837 178.34 92.0523 176.242Z" fill="white"/>
<path opacity="0.2" d="M101.774 4.49693C101.727 5.08606 101.462 5.63642 101.031 6.04034C100.599 6.44427 100.033 6.67269 99.4416 6.68091C99.1616 6.68174 98.8844 6.62458 98.6276 6.51306C98.3708 6.40154 98.1399 6.23806 97.9493 6.03291C97.7588 5.82775 97.6128 5.58538 97.5205 5.32103C97.4282 5.05669 97.3916 4.7761 97.4131 4.49693C97.4587 3.90724 97.7234 3.356 98.1552 2.95177C98.587 2.54755 99.1544 2.31965 99.7458 2.31296C100.026 2.31214 100.303 2.36929 100.56 2.48081C100.817 2.59233 101.048 2.75582 101.238 2.96097C101.429 3.16612 101.575 3.40849 101.667 3.67284C101.759 3.93718 101.796 4.21777 101.774 4.49693Z" fill="white"/>
<path opacity="0.2" d="M100.787 4.4968C100.763 4.82097 100.619 5.12447 100.382 5.34731C100.146 5.57016 99.8342 5.69614 99.5092 5.70036C99.3541 5.70282 99.2002 5.67271 99.0575 5.612C98.9148 5.55129 98.7864 5.46131 98.6806 5.34789C98.5749 5.23447 98.494 5.10011 98.4434 4.95351C98.3928 4.80691 98.3735 4.65132 98.3868 4.4968C98.4104 4.17263 98.5548 3.86914 98.7915 3.64629C99.0281 3.42345 99.3397 3.29746 99.6647 3.29325C99.8198 3.29079 99.9736 3.32089 100.116 3.3816C100.259 3.44231 100.387 3.53228 100.493 3.6457C100.599 3.75913 100.68 3.89348 100.73 4.04008C100.781 4.18668 100.8 4.34227 100.787 4.4968Z" fill="white"/>
</svg>
