<svg width="16" height="16" viewBox="0 0 16 16" fill="none" xmlns="http://www.w3.org/2000/svg">
<g clip-path="url(#clip0_0_52)">
<path d="M15.898 7.64541C15.77 7.44208 12.714 2.66675 8.00005 2.66675C3.28605 2.66675 0.230048 7.44208 0.102048 7.64541C0.0352921 7.75167 -0.00012207 7.8746 -0.00012207 8.00008C-0.00012207 8.12556 0.0352921 8.2485 0.102048 8.35475C0.230048 8.55808 3.28605 13.3334 8.00005 13.3334C12.714 13.3334 15.77 8.55808 15.898 8.35475C15.9648 8.2485 16.0002 8.12556 16.0002 8.00008C16.0002 7.8746 15.9648 7.75167 15.898 7.64541ZM8.00005 10.6667C7.47263 10.6667 6.95706 10.5104 6.51853 10.2173C6.08 9.92432 5.7382 9.50784 5.53637 9.02057C5.33454 8.5333 5.28173 7.99712 5.38462 7.47984C5.48751 6.96256 5.74149 6.4874 6.11443 6.11446C6.48737 5.74152 6.96252 5.48755 7.47981 5.38465C7.99709 5.28176 8.53327 5.33457 9.02054 5.5364C9.50781 5.73824 9.92428 6.08003 10.2173 6.51856C10.5103 6.95709 10.6667 7.47266 10.6667 8.00008C10.6667 8.70732 10.3858 9.3856 9.88567 9.8857C9.38557 10.3858 8.70729 10.6667 8.00005 10.6667Z" fill="white"/>
</g>
<defs>
<clipPath id="clip0_0_52">
<rect width="16" height="16" fill="white"/>
</clipPath>
</defs>
</svg>
