<svg width="24" height="24" viewBox="0 0 24 24" fill="none" xmlns="http://www.w3.org/2000/svg">
<g clip-path="url(#clip0_0_16)">
<path opacity="0.939" fill-rule="evenodd" clip-rule="evenodd" d="M10.8639 -0.0234164C11.479 -0.0234164 12.0941 -0.0234164 12.7092 -0.0234164C15.6407 0.494112 17.6013 2.18161 18.5909 5.03909C19.3393 7.9586 18.655 10.4664 16.538 12.5625C16.3666 12.7212 16.182 12.8618 15.9845 12.9844C17.0147 14.5938 18.045 16.2032 19.0752 17.8125C20.4592 17.2955 21.697 17.5377 22.7888 18.5391C23.1546 18.9701 23.4236 19.4545 23.5961 19.9922C23.5961 20.5234 23.5961 21.0547 23.5961 21.586C23.2471 22.7807 22.4937 23.5775 21.3357 23.9766C20.7667 23.9766 20.1977 23.9766 19.6288 23.9766C17.8154 23.3084 17.0543 21.9959 17.3453 20.0391C17.5022 19.3489 17.8482 18.7785 18.3833 18.3281C17.3542 16.6972 16.3086 15.08 15.2464 13.4766C14.3028 14.0201 13.2879 14.317 12.2017 14.3672C12.2017 15.4453 12.2017 16.5235 12.2017 17.6016C13.9109 17.9401 14.8335 18.9948 14.9696 20.7657C14.9125 22.0231 14.3589 22.9762 13.3089 23.625C12.9954 23.7858 12.6725 23.9029 12.3401 23.9766C11.9711 23.9766 11.602 23.9766 11.233 23.9766C9.95971 23.684 9.1217 22.9027 8.71884 21.6328C8.41087 20.1336 8.86447 18.9383 10.0797 18.0469C10.4754 17.7905 10.906 17.642 11.3714 17.6016C11.3714 16.5235 11.3714 15.4453 11.3714 14.3672C10.2852 14.317 9.27029 14.0201 8.32672 13.4766C7.26451 15.08 6.21886 16.6972 5.18982 18.3281C6.24442 19.3411 6.54427 20.552 6.08937 21.961C5.61233 23.05 4.80504 23.7218 3.6675 23.9766C3.29845 23.9766 2.9294 23.9766 2.56035 23.9766C1.18012 23.6522 0.319006 22.7928 -0.0229816 21.3985C-0.0229816 20.9922 -0.0229816 20.586 -0.0229816 20.1797C0.479698 18.3656 1.66373 17.4984 3.5291 17.5781C3.86094 17.6389 4.18386 17.717 4.49785 17.8125C5.5281 16.2032 6.55839 14.5938 7.58863 12.9844C5.51167 11.3642 4.5506 9.21574 4.70544 6.53909C5.03772 3.72997 6.46013 1.72216 8.97256 0.515646C9.59067 0.268956 10.2211 0.0892683 10.8639 -0.0234164ZM11.1407 0.820334C11.2176 0.820334 11.2945 0.820334 11.3714 0.820334C11.3714 1.07033 11.3714 1.32034 11.3714 1.57033C10.175 1.67845 9.11399 2.11595 8.18833 2.88283C8.0122 2.72732 7.84304 2.56326 7.68089 2.39065C8.67787 1.50907 9.83115 0.985634 11.1407 0.820334ZM12.2017 0.820334C13.6078 0.929028 14.8379 1.45247 15.8922 2.39065C15.7301 2.56326 15.5609 2.72732 15.3848 2.88283C14.4592 2.11598 13.3982 1.67848 12.2017 1.57033C12.2017 1.32034 12.2017 1.07033 12.2017 0.820334ZM11.233 2.41408C13.4757 2.29901 15.098 3.25214 16.0998 5.27346C16.8595 7.38073 16.452 9.21663 14.8773 10.7813C13.3049 12.0482 11.5981 12.2825 9.75678 11.4844C7.78759 10.3812 6.91876 8.68587 7.15038 6.39846C7.64786 4.15065 9.00872 2.82253 11.233 2.41408ZM7.03506 3.02346C7.23826 3.1592 7.42279 3.32326 7.58863 3.51565C6.8157 4.43877 6.37746 5.5091 6.2739 6.72659C6.02405 6.77998 5.77033 6.7878 5.51273 6.75002C5.64721 5.34476 6.15465 4.10255 7.03506 3.02346ZM16.4458 3.02346C16.4799 3.01732 16.5106 3.02513 16.538 3.0469C17.4249 4.11557 17.9324 5.34996 18.0604 6.75002C17.8028 6.7878 17.549 6.77998 17.2992 6.72659C17.1956 5.5091 16.7574 4.43877 15.9845 3.51565C16.1476 3.35772 16.3014 3.19366 16.4458 3.02346ZM11.3252 4.47658C11.3712 5.18712 11.3866 5.90585 11.3714 6.63284C10.8882 6.44979 10.6422 6.0904 10.6333 5.55471C10.6679 5.06177 10.8986 4.70238 11.3252 4.47658ZM5.55887 7.61721C5.80488 7.61721 6.05094 7.61721 6.29696 7.61721C6.37838 8.83671 6.80892 9.90701 7.58863 10.8281C7.42648 11.0007 7.25732 11.1648 7.08119 11.3203C6.15243 10.2718 5.64499 9.03738 5.55887 7.61721ZM17.2761 7.61721C17.5221 7.61721 17.7682 7.61721 18.0142 7.61721C17.9281 9.03752 17.4206 10.2719 16.4919 11.3203C16.3158 11.1648 16.1466 11.0007 15.9845 10.8281C16.7642 9.90701 17.1947 8.83671 17.2761 7.61721ZM12.2017 7.71096C12.7626 7.95977 13.001 8.3973 12.9168 9.02346C12.8035 9.40418 12.5728 9.68543 12.2248 9.86721C12.2017 9.14862 12.194 8.42988 12.2017 7.71096ZM8.1422 11.461C8.85801 12.0199 9.6576 12.4183 10.541 12.6563C10.8154 12.7151 11.0922 12.7541 11.3714 12.7735C11.3714 13.0234 11.3714 13.2735 11.3714 13.5235C9.96087 13.4236 8.73069 12.9002 7.68089 11.9531C7.84405 11.7952 7.99786 11.6312 8.1422 11.461ZM15.3386 11.461C15.5418 11.5967 15.7264 11.7608 15.8922 11.9531C14.8424 12.9002 13.6122 13.4236 12.2017 13.5235C12.2017 13.2735 12.2017 13.0234 12.2017 12.7735C13.3985 12.6915 14.4442 12.254 15.3386 11.461ZM2.83714 18.3985C4.25226 18.3757 5.12104 19.0632 5.44354 20.461C5.49899 21.8416 4.87622 22.7244 3.57523 23.1094C2.14634 23.2392 1.23141 22.6064 0.830441 21.211C0.728413 19.6984 1.39731 18.7609 2.83714 18.3985ZM11.4636 18.3985C13.0473 18.3984 13.9392 19.1952 14.1392 20.7891C14.0706 21.8659 13.5478 22.6081 12.5708 23.0157C11.2619 23.3464 10.2854 22.9167 9.64146 21.7266C9.20686 20.4107 9.5682 19.3872 10.7255 18.6563C10.9721 18.5546 11.2182 18.4686 11.4636 18.3985ZM20.1363 18.3985C21.1796 18.3464 21.9715 18.7683 22.512 19.6641C23.0323 20.9167 22.7632 21.9558 21.7047 22.7813C20.5578 23.3889 19.5353 23.2248 18.637 22.2891C17.969 21.3407 17.9383 20.372 18.5447 19.3828C18.9685 18.8643 19.499 18.5362 20.1363 18.3985Z" fill="white"/>
<path opacity="0.941" fill-rule="evenodd" clip-rule="evenodd" d="M11.6019 3.16408C11.7623 3.14928 11.9161 3.17272 12.0632 3.23439C12.1372 3.35359 12.1987 3.47859 12.2477 3.60939C13.0637 3.84483 13.5635 4.3839 13.747 5.22658C13.8942 5.767 13.702 6.00916 13.1703 5.95315C13.1043 5.93135 13.0505 5.89225 13.0089 5.83596C12.9953 5.22968 12.7339 4.77658 12.2247 4.47658C12.2016 5.25766 12.1939 6.03893 12.2016 6.82033C13.2049 7.07683 13.7277 7.73308 13.77 8.78908C13.7117 9.80172 13.2042 10.458 12.2477 10.7578C12.1705 11.1175 11.9552 11.2503 11.6019 11.1563C11.4479 11.0704 11.3556 10.9376 11.3251 10.7578C10.2238 10.4087 9.73944 9.65866 9.87197 8.50783C10.026 8.37574 10.2028 8.33669 10.4025 8.39065C10.599 8.55058 10.6836 8.76152 10.6562 9.02346C10.7695 9.40418 11.0001 9.68543 11.3482 9.86721C11.3789 9.1016 11.3789 8.33594 11.3482 7.57033C10.1315 7.14513 9.63943 6.28577 9.87197 4.99221C10.1195 4.27184 10.6039 3.8109 11.3251 3.60939C11.363 3.42003 11.4552 3.27159 11.6019 3.16408ZM11.3251 4.47658C10.8984 4.70238 10.6678 5.06177 10.6331 5.55471C10.6421 6.0904 10.8881 6.44979 11.3712 6.63283C11.3865 5.90585 11.371 5.18711 11.3251 4.47658ZM12.2016 7.71096C12.1939 8.42988 12.2016 9.14862 12.2247 9.86721C12.5727 9.68543 12.8034 9.40418 12.9166 9.02346C13.0009 8.3973 12.7625 7.95977 12.2016 7.71096Z" fill="white"/>
<path opacity="0.916" fill-rule="evenodd" clip-rule="evenodd" d="M2.88324 19.1485C3.42655 19.0988 3.61876 19.3331 3.45988 19.8516C3.41825 19.9079 3.36442 19.947 3.29842 19.9688C2.69821 19.9724 2.38298 20.2771 2.35274 20.8828C2.13201 21.2746 1.8706 21.3059 1.56851 20.9766C1.51324 19.9935 1.95149 19.3841 2.88324 19.1485Z" fill="white"/>
<path opacity="0.917" fill-rule="evenodd" clip-rule="evenodd" d="M11.5558 19.1485C12.0905 19.1128 12.2751 19.3472 12.1094 19.8516C12.0633 19.8906 12.0171 19.9297 11.971 19.9688C11.6502 19.9679 11.3811 20.0851 11.1637 20.3203C11.0733 20.5772 10.9887 20.835 10.91 21.0938C10.518 21.2931 10.272 21.1759 10.1719 20.7422C10.2622 19.8697 10.7235 19.3384 11.5558 19.1485Z" fill="white"/>
<path opacity="0.915" fill-rule="evenodd" clip-rule="evenodd" d="M20.2284 19.1485C20.7294 19.1023 20.9216 19.3211 20.805 19.8047C20.749 19.8773 20.6798 19.932 20.5975 19.9688C20.0055 20.0078 19.6902 20.3282 19.6518 20.9297C19.3903 21.3047 19.129 21.3047 18.8675 20.9297C18.8474 19.9584 19.301 19.3646 20.2284 19.1485Z" fill="white"/>
</g>
<defs>
<clipPath id="clip0_0_16">
<rect width="23.2094" height="23.5837" fill="white" transform="scale(1.01765)"/>
</clipPath>
</defs>
</svg>
