<svg width="14" height="14" viewBox="0 0 14 14" fill="none" xmlns="http://www.w3.org/2000/svg">
<g clip-path="url(#clip0_0_13)">
<path d="M13.7859 5.9652L7.36926 0.715187C7.26506 0.629987 7.13461 0.583442 7.00001 0.583442C6.86541 0.583442 6.73496 0.629987 6.63076 0.715187L0.214076 5.9652C0.097016 6.06397 0.0234969 6.20481 0.00939316 6.35732C-0.00471052 6.50983 0.0417329 6.66177 0.138695 6.78033C0.235658 6.89889 0.375359 6.97456 0.527636 6.991C0.679912 7.00744 0.832545 6.96333 0.952578 6.8682L1.75 6.21603V12.8334C1.75 12.9881 1.81145 13.1365 1.92085 13.2459C2.03025 13.3553 2.17862 13.4167 2.33333 13.4167H5.83334V9.91671H8.16668V13.4167H11.6667C11.8214 13.4167 11.9698 13.3553 12.0792 13.2459C12.1886 13.1365 12.25 12.9881 12.25 12.8334V6.21603L13.0474 6.8682C13.1066 6.91809 13.175 6.95571 13.2488 6.97889C13.3226 7.00207 13.4003 7.01034 13.4773 7.00322C13.5544 6.99609 13.6292 6.97372 13.6975 6.9374C13.7658 6.90108 13.8262 6.85154 13.8752 6.79166C13.9241 6.73177 13.9607 6.66275 13.9828 6.5886C14.0048 6.51445 14.0119 6.43666 14.0036 6.35975C13.9953 6.28284 13.9718 6.20835 13.9344 6.14061C13.897 6.07288 13.8466 6.01325 13.7859 5.9652Z" fill="#FAFF00"/>
</g>
<defs>
<clipPath id="clip0_0_13">
<rect width="13.1021" height="13.1021" fill="white" transform="scale(1.06854)"/>
</clipPath>
</defs>
</svg>
