<svg width="16" height="16" viewBox="0 0 16 16" fill="none" xmlns="http://www.w3.org/2000/svg">
<path d="M12.9166 10.0687C13.3492 9.0409 13.4488 7.90337 13.2013 6.81605C12.9539 5.72873 12.3719 4.74629 11.5372 4.00687C10.7025 3.26744 9.65706 2.80821 8.54784 2.69374C7.43861 2.57927 6.3214 2.81532 5.35328 3.3687L4.69194 2.2107C5.7037 1.63244 6.8494 1.32961 8.01475 1.33242C9.18009 1.33522 10.3243 1.64357 11.3333 2.2267C14.3266 3.9547 15.4733 7.6547 14.0779 10.74L14.9726 11.256L12.1959 12.732L12.0859 9.58936L12.9166 10.0687ZM3.08328 5.93136C2.65071 6.95916 2.55113 8.09669 2.79856 9.18401C3.04598 10.2713 3.62795 11.2538 4.46266 11.9932C5.29737 12.7326 6.34283 13.1919 7.45205 13.3063C8.56128 13.4208 9.67849 13.1847 10.6466 12.6314L11.3079 13.7894C10.2962 14.3676 9.15049 14.6705 7.98514 14.6676C6.8198 14.6648 5.67557 14.3565 4.66661 13.7734C1.67328 12.0454 0.526611 8.34536 1.92194 5.26003L1.02661 4.7447L3.80328 3.2687L3.91328 6.41136L3.08261 5.93203L3.08328 5.93136ZM8.94328 9.88536L7.05594 8.00003L5.17061 9.88536L4.22794 8.9427L7.05661 6.1147L8.94261 8.00003L10.8286 6.1147L11.7713 7.05736L8.94261 9.88536H8.94328Z" fill="white"/>
</svg>
