<svg width="14" height="17" viewBox="0 0 14 17" fill="none" xmlns="http://www.w3.org/2000/svg">
<path d="M14 13.537V14.3333H0V13.537L1.55555 11.9444V7.16666C1.55555 4.69814 3.13444 2.52426 5.44444 1.82352V1.59259C5.44444 1.17021 5.60833 0.765128 5.90005 0.466459C6.19177 0.16779 6.58743 0 6.99999 0C7.41255 0 7.80821 0.16779 8.09994 0.466459C8.39166 0.765128 8.55555 1.17021 8.55555 1.59259V1.82352C10.8655 2.52426 12.4444 4.69814 12.4444 7.16666V11.9444L14 13.537ZM8.55555 15.1296C8.55555 15.552 8.39166 15.9571 8.09994 16.2557C7.80821 16.5544 7.41255 16.7222 6.99999 16.7222C6.58743 16.7222 6.19177 16.5544 5.90005 16.2557C5.60833 15.9571 5.44444 15.552 5.44444 15.1296" fill="white"/>
</svg>
