<svg width="144" height="179" viewBox="0 0 144 179" fill="none" xmlns="http://www.w3.org/2000/svg">
<path d="M127.576 20.5847L126.42 119.786C122.335 152.794 63.8219 179 63.8219 179C63.8219 179 5.3002 152.82 1.19001 119.786L0 20.5847L62.539 0L127.576 20.5847Z" fill="#E70202"/>
<path d="M119.415 26.864L118.411 115.938C114.849 144.726 63.8134 167.581 63.8134 167.581C63.8134 167.581 12.7778 144.726 9.22469 115.938L8.15283 26.864L62.6994 8.91251L119.415 26.864Z" fill="#FF4D4D"/>
<path d="M115.836 32.4847L114.891 114.258C111.515 141.266 63.7037 162.669 63.7037 162.669C63.7037 162.669 15.8584 141.24 12.5246 114.258L11.5203 32.4847L62.6571 15.6557L115.836 32.4847Z" stroke="white" stroke-width="3" stroke-linecap="round" stroke-linejoin="round"/>
<path d="M105.169 103.047H101.844V103.891H105.169V103.047Z" fill="#E70202"/>
<path d="M119.458 103.047H108.612V103.891H119.458V103.047Z" fill="#E70202"/>
<path d="M139.308 88.6397L137.207 112.693C137.097 113.756 136.603 114.743 135.816 115.466C135.029 116.189 134.004 116.599 132.936 116.618C132.433 116.627 131.934 116.528 131.472 116.33C131.01 116.131 130.596 115.836 130.257 115.465C129.918 115.094 129.661 114.655 129.505 114.177C129.348 113.699 129.295 113.193 129.349 112.693L131.434 88.6397C131.628 86.8457 131.438 85.031 130.877 83.3159C130.317 81.6007 129.398 80.0244 128.181 78.6916C126.965 77.3587 125.479 76.2997 123.822 75.5848C122.166 74.87 120.376 74.5156 118.571 74.5452H109.997C106.161 74.6178 102.485 76.0913 99.662 78.6877C96.8385 81.2842 95.0629 84.8241 94.6699 88.6397L93.8259 98.4637H85.9769L86.8208 88.6397C87.8758 76.537 98.5859 66.6962 110.68 66.6962H119.289C122.098 66.6499 124.884 67.2015 127.463 68.3145C130.043 69.4274 132.356 71.0763 134.249 73.1515C136.142 75.2268 137.573 77.6811 138.445 80.3514C139.317 83.0217 139.611 85.847 139.308 88.6397Z" fill="#E70202"/>
<g opacity="0.5">
<path d="M139.308 88.6397L137.207 112.693C137.097 113.756 136.603 114.743 135.816 115.466C135.029 116.189 134.004 116.599 132.936 116.618C132.433 116.627 131.934 116.528 131.472 116.33C131.01 116.131 130.596 115.836 130.257 115.465C129.918 115.094 129.661 114.655 129.505 114.177C129.348 113.699 129.295 113.193 129.349 112.693L131.434 88.6397C131.628 86.8457 131.438 85.031 130.877 83.3159C130.317 81.6007 129.398 80.0244 128.181 78.6916C126.965 77.3587 125.479 76.2997 123.822 75.5848C122.166 74.87 120.376 74.5156 118.571 74.5452H109.997C106.161 74.6178 102.485 76.0913 99.662 78.6877C96.8385 81.2842 95.0629 84.8241 94.6699 88.6397L93.8259 98.4637H85.9769L86.8208 88.6397C87.8758 76.537 98.5859 66.6962 110.68 66.6962H119.289C122.098 66.6499 124.884 67.2015 127.463 68.3145C130.043 69.4274 132.356 71.0763 134.249 73.1515C136.142 75.2268 137.573 77.6811 138.445 80.3514C139.317 83.0217 139.611 85.847 139.308 88.6397Z" fill="white"/>
</g>
<path d="M139.873 111.816L135.78 158.69C135.632 160.144 134.955 161.492 133.878 162.48C132.802 163.468 131.401 164.026 129.94 164.05H83.0651C82.3785 164.062 81.6972 163.928 81.0664 163.657C80.4357 163.385 79.8699 162.983 79.4068 162.476C78.9437 161.969 78.5939 161.369 78.3806 160.716C78.1674 160.063 78.0956 159.373 78.17 158.69L82.2717 111.816C82.3661 110.881 82.6797 109.982 83.1871 109.191C83.6946 108.401 84.3815 107.741 85.1919 107.266C86.0718 106.728 87.0806 106.436 88.1121 106.422H134.978C135.936 106.417 136.875 106.683 137.688 107.19C138.446 107.682 139.052 108.375 139.438 109.192C139.824 110.009 139.975 110.918 139.873 111.816Z" fill="#E70202"/>
<path d="M91.1335 132.29L103.312 151.035L143.477 110.87C143.539 110.796 143.573 110.701 143.571 110.604C143.57 110.508 143.533 110.414 143.469 110.342C143.405 110.269 143.317 110.222 143.22 110.209C143.124 110.196 143.027 110.218 142.946 110.271L104.671 140.274L97.438 128.619L91.1335 132.29Z" fill="white"/>
</svg>
