<svg width="29" height="29" viewBox="0 0 29 29" fill="none" xmlns="http://www.w3.org/2000/svg">
<path d="M25.5883 11.0476H17.9524V3.41164C17.9524 1.53562 16.3767 0 14.5 0C12.6233 0 11.0476 1.53562 11.0476 3.41164V11.0476H3.41164C1.53562 11.0476 0 12.6233 0 14.5C0 16.3767 1.53562 17.9524 3.41164 17.9524H11.0476V25.5883C11.0476 27.4643 12.6233 29 14.5 29C16.3767 29 17.9524 27.4643 17.9524 25.5883V17.9524H25.5883C27.4643 17.9524 29 16.3767 29 14.5C29 12.6233 27.4643 11.0476 25.5883 11.0476Z" fill="#FCFCFC"/>
</svg>
