<svg width="20" height="20" viewBox="0 0 20 20" fill="none" xmlns="http://www.w3.org/2000/svg">
<path d="M5.83329 3.33341V16.6667H14.1666V3.33341H5.83329ZM4.99996 1.66675H15C15.221 1.66675 15.4329 1.75455 15.5892 1.91083C15.7455 2.06711 15.8333 2.27907 15.8333 2.50008V17.5001C15.8333 17.7211 15.7455 17.9331 15.5892 18.0893C15.4329 18.2456 15.221 18.3334 15 18.3334H4.99996C4.77895 18.3334 4.56698 18.2456 4.4107 18.0893C4.25442 17.9331 4.16663 17.7211 4.16663 17.5001V2.50008C4.16663 2.27907 4.25442 2.06711 4.4107 1.91083C4.56698 1.75455 4.77895 1.66675 4.99996 1.66675ZM9.99996 14.1667C10.221 14.1667 10.4329 14.2545 10.5892 14.4108C10.7455 14.5671 10.8333 14.7791 10.8333 15.0001C10.8333 15.2211 10.7455 15.4331 10.5892 15.5893C10.4329 15.7456 10.221 15.8334 9.99996 15.8334C9.77895 15.8334 9.56698 15.7456 9.4107 15.5893C9.25442 15.4331 9.16663 15.2211 9.16663 15.0001C9.16663 14.7791 9.25442 14.5671 9.4107 14.4108C9.56698 14.2545 9.77895 14.1667 9.99996 14.1667Z" fill="white"/>
</svg>
