<svg width="20" height="20" viewBox="0 0 20 20" fill="none" xmlns="http://www.w3.org/2000/svg">
<path d="M9.16675 1.66663C13.3067 1.66663 16.6667 5.02663 16.6667 9.16663C16.6667 13.3066 13.3067 16.6666 9.16675 16.6666C5.02675 16.6666 1.66675 13.3066 1.66675 9.16663C1.66675 5.02663 5.02675 1.66663 9.16675 1.66663ZM9.16675 15C12.3892 15 15.0001 12.3891 15.0001 9.16663C15.0001 5.94329 12.3892 3.33329 9.16675 3.33329C5.94341 3.33329 3.33341 5.94329 3.33341 9.16663C3.33341 12.3891 5.94341 15 9.16675 15ZM16.2376 15.0591L18.5951 17.4158L17.4159 18.595L15.0592 16.2375L16.2376 15.0591Z" fill="white"/>
</svg>
