<svg width="14" height="17" viewBox="0 0 14 17" fill="none" xmlns="http://www.w3.org/2000/svg">
<path d="M14 13.5371V14.3334H0V13.5371L1.55556 11.9445V7.16668C1.55556 4.69816 3.13445 2.52427 5.44446 1.82352V1.5926C5.44446 1.17021 5.60835 0.76513 5.90007 0.466461C6.19179 0.167791 6.58746 0 7.00002 0C7.41258 0 7.80824 0.167791 8.09996 0.466461C8.39169 0.76513 8.55558 1.17021 8.55558 1.5926V1.82352C10.8656 2.52427 12.4445 4.69816 12.4445 7.16668V11.9445L14 13.5371ZM8.55558 15.1297C8.55558 15.552 8.39169 15.9571 8.09996 16.2558C7.80824 16.5545 7.41258 16.7223 7.00002 16.7223C6.58746 16.7223 6.19179 16.5545 5.90007 16.2558C5.60835 15.9571 5.44446 15.552 5.44446 15.1297" fill="white"/>
</svg>
