<svg width="24" height="24" viewBox="0 0 24 24" fill="none" xmlns="http://www.w3.org/2000/svg">
<g clip-path="url(#clip0_0_11)">
<path opacity="0.939" fill-rule="evenodd" clip-rule="evenodd" d="M10.8638 -0.0234576C11.4789 -0.0234576 12.094 -0.0234576 12.7091 -0.0234576C15.6407 0.494071 17.6012 2.18157 18.5908 5.03905C19.3393 7.95857 18.6549 10.4664 16.5379 12.5625C16.3665 12.7212 16.182 12.8618 15.9844 12.9844C17.0146 14.5937 18.0449 16.2031 19.0752 17.8125C20.4591 17.2955 21.6969 17.5377 22.7887 18.5391C23.1545 18.9701 23.4236 19.4545 23.596 19.9922C23.596 20.5234 23.596 21.0547 23.596 21.5859C23.2471 22.7806 22.4936 23.5775 21.3356 23.9766C20.7666 23.9766 20.1977 23.9766 19.6287 23.9766C17.8154 23.3084 17.0542 21.9959 17.3452 20.0391C17.5021 19.3488 17.8481 18.7785 18.3832 18.3281C17.3541 16.6972 16.3085 15.08 15.2463 13.4766C14.3027 14.0201 13.2878 14.3169 12.2016 14.3672C12.2016 15.4453 12.2016 16.5234 12.2016 17.6016C13.9108 17.9401 14.8334 18.9948 14.9695 20.7656C14.9124 22.023 14.3588 22.9762 13.3088 23.625C12.9953 23.7857 12.6724 23.9029 12.34 23.9766C11.971 23.9766 11.6019 23.9766 11.2329 23.9766C9.95962 23.684 9.1216 22.9027 8.71874 21.6328C8.41077 20.1336 8.86437 18.9383 10.0796 18.0469C10.4753 17.7905 10.9059 17.642 11.3713 17.6016C11.3713 16.5234 11.3713 15.4453 11.3713 14.3672C10.2851 14.3169 9.27019 14.0201 8.32663 13.4766C7.26441 15.08 6.21876 16.6972 5.18972 18.3281C6.24432 19.341 6.54417 20.552 6.08927 21.9609C5.61223 23.0499 4.80494 23.7218 3.6674 23.9766C3.29835 23.9766 2.9293 23.9766 2.56025 23.9766C1.18002 23.6522 0.318902 22.7928 -0.0230853 21.3984C-0.0230853 20.9922 -0.0230853 20.586 -0.0230853 20.1797C0.479595 18.3656 1.66363 17.4984 3.529 17.5781C3.86084 17.6389 4.18376 17.717 4.49775 17.8125C5.528 16.2031 6.55829 14.5937 7.58853 12.9844C5.51157 11.3642 4.5505 9.21571 4.70534 6.53905C5.03762 3.72994 6.46003 1.72212 8.97246 0.515605C9.59057 0.268915 10.221 0.0892272 10.8638 -0.0234576ZM11.1406 0.820293C11.2175 0.820293 11.2944 0.820293 11.3713 0.820293C11.3713 1.07029 11.3713 1.3203 11.3713 1.57029C10.1749 1.67841 9.1139 2.11591 8.18823 2.8828C8.01211 2.72728 7.84294 2.56322 7.68079 2.39061C8.67778 1.50903 9.83105 0.985593 11.1406 0.820293ZM12.2016 0.820293C13.6077 0.928987 14.8378 1.45243 15.8921 2.39061C15.73 2.56322 15.5608 2.72728 15.3847 2.8828C14.4591 2.11594 13.3981 1.67844 12.2016 1.57029C12.2016 1.3203 12.2016 1.07029 12.2016 0.820293ZM11.2329 2.41405C13.4756 2.29897 15.0979 3.2521 16.0997 5.27342C16.8594 7.38069 16.4519 9.2166 14.8772 10.7812C13.3048 12.0481 11.598 12.2825 9.75669 11.4844C7.78749 10.3812 6.91866 8.68583 7.15029 6.39842C7.64776 4.15062 9.00863 2.82249 11.2329 2.41405ZM7.03496 3.02342C7.23817 3.15916 7.42269 3.32322 7.58853 3.51561C6.81561 4.43873 6.37736 5.50906 6.2738 6.72655C6.02395 6.77994 5.77023 6.78777 5.51264 6.74999C5.64711 5.34472 6.15455 4.10251 7.03496 3.02342ZM16.4457 3.02342C16.4798 3.01728 16.5105 3.02509 16.5379 3.04686C17.4249 4.11553 17.9323 5.34992 18.0603 6.74999C17.8027 6.78777 17.549 6.77994 17.2991 6.72655C17.1955 5.50906 16.7573 4.43873 15.9844 3.51561C16.1475 3.35768 16.3013 3.19362 16.4457 3.02342ZM11.3251 4.47655C11.3711 5.18708 11.3865 5.90581 11.3713 6.6328C10.8881 6.44975 10.6421 6.09036 10.6332 5.55467C10.6678 5.06174 10.8985 4.70234 11.3251 4.47655ZM5.55877 7.61718C5.80478 7.61718 6.05085 7.61718 6.29686 7.61718C6.37828 8.83668 6.80882 9.90697 7.58853 10.8281C7.42638 11.0007 7.25722 11.1648 7.08109 11.3203C6.15233 10.2718 5.64489 9.03735 5.55877 7.61718ZM17.276 7.61718C17.5221 7.61718 17.7681 7.61718 18.0141 7.61718C17.928 9.03749 17.4205 10.2719 16.4918 11.3203C16.3157 11.1648 16.1465 11.0007 15.9844 10.8281C16.7641 9.90697 17.1946 8.83668 17.276 7.61718ZM12.2016 7.71093C12.7625 7.95974 13.0009 8.39727 12.9167 9.02343C12.8034 9.40415 12.5728 9.6854 12.2247 9.86718C12.2016 9.14858 12.1939 8.42985 12.2016 7.71093ZM8.1421 11.4609C8.85792 12.0199 9.65751 12.4183 10.5409 12.6562C10.8153 12.7151 11.0921 12.7541 11.3713 12.7734C11.3713 13.0234 11.3713 13.2734 11.3713 13.5234C9.96077 13.4236 8.7306 12.9002 7.68079 11.9531C7.84396 11.7952 7.99776 11.6311 8.1421 11.4609ZM15.3385 11.4609C15.5417 11.5967 15.7263 11.7607 15.8921 11.9531C14.8423 12.9002 13.6121 13.4236 12.2016 13.5234C12.2016 13.2734 12.2016 13.0234 12.2016 12.7734C13.3984 12.6914 14.4441 12.254 15.3385 11.4609ZM2.83704 18.3984C4.25216 18.3757 5.12094 19.0632 5.44344 20.4609C5.49889 21.8415 4.87612 22.7244 3.57513 23.1094C2.14624 23.2392 1.2313 22.6064 0.830338 21.2109C0.72831 19.6984 1.39721 18.7609 2.83704 18.3984ZM11.4635 18.3984C13.0472 18.3983 13.9391 19.1952 14.1391 20.7891C14.0705 21.8659 13.5477 22.6081 12.5707 23.0156C11.2618 23.3464 10.2853 22.9167 9.64136 21.7266C9.20676 20.4107 9.5681 19.3872 10.7254 18.6562C10.9721 18.5545 11.2181 18.4686 11.4635 18.3984ZM20.1362 18.3984C21.1795 18.3464 21.9714 18.7682 22.5119 19.6641C23.0322 20.9167 22.7631 21.9557 21.7046 22.7813C20.5578 23.3888 19.5352 23.2248 18.6369 22.2891C17.9689 21.3407 17.9382 20.372 18.5446 19.3828C18.9684 18.8643 19.4989 18.5362 20.1362 18.3984Z" fill="#FAFF00"/>
<path opacity="0.941" fill-rule="evenodd" clip-rule="evenodd" d="M11.6018 3.16406C11.7623 3.14926 11.9161 3.1727 12.0632 3.23438C12.1372 3.35357 12.1987 3.47857 12.2477 3.60938C13.0637 3.84482 13.5634 4.38388 13.7469 5.22657C13.8942 5.76699 13.702 6.00915 13.1703 5.95313C13.1043 5.93133 13.0505 5.89224 13.0088 5.83594C12.9953 5.22966 12.7339 4.77657 12.2246 4.47657C12.2015 5.25764 12.1938 6.03891 12.2015 6.82032C13.2049 7.07682 13.7277 7.73307 13.77 8.78907C13.7116 9.80171 13.2042 10.458 12.2477 10.7578C12.1705 11.1175 11.9552 11.2503 11.6018 11.1563C11.4478 11.0704 11.3555 10.9376 11.3251 10.7578C10.2238 10.4087 9.7394 9.65865 9.87193 8.50782C10.0259 8.37573 10.2027 8.33668 10.4024 8.39063C10.599 8.55057 10.6835 8.76151 10.6562 9.02345C10.7694 9.40416 11.0001 9.68542 11.3481 9.8672C11.3789 9.10159 11.3789 8.33593 11.3481 7.57032C10.1315 7.14512 9.63938 6.28576 9.87193 4.99219C10.1195 4.27182 10.6038 3.81088 11.3251 3.60938C11.3629 3.42002 11.4552 3.27158 11.6018 3.16406ZM11.3251 4.47657C10.8984 4.70236 10.6677 5.06175 10.6331 5.55469C10.642 6.09038 10.8881 6.44977 11.3712 6.63282C11.3864 5.90583 11.371 5.1871 11.3251 4.47657ZM12.2015 7.71094C12.1938 8.42987 12.2015 9.1486 12.2246 9.8672C12.5727 9.68542 12.8033 9.40416 12.9166 9.02345C13.0008 8.39729 12.7625 7.95976 12.2015 7.71094Z" fill="#FAFF00"/>
<path opacity="0.916" fill-rule="evenodd" clip-rule="evenodd" d="M2.88309 19.1484C3.4264 19.0987 3.61861 19.3331 3.45973 19.8516C3.4181 19.9079 3.36428 19.9469 3.29827 19.9687C2.69806 19.9724 2.38283 20.2771 2.35259 20.8828C2.13186 21.2746 1.87045 21.3059 1.56836 20.9766C1.51309 19.9935 1.95134 19.3841 2.88309 19.1484Z" fill="#FAFF00"/>
<path opacity="0.917" fill-rule="evenodd" clip-rule="evenodd" d="M11.5557 19.1484C12.0904 19.1128 12.275 19.3471 12.1093 19.8516C12.0632 19.8906 12.017 19.9297 11.9709 19.9687C11.6501 19.9679 11.381 20.0851 11.1636 20.3203C11.0732 20.5772 10.9886 20.835 10.9099 21.0937C10.5179 21.2931 10.2719 21.1759 10.1718 20.7422C10.2621 19.8696 10.7234 19.3384 11.5557 19.1484Z" fill="#FAFF00"/>
<path opacity="0.915" fill-rule="evenodd" clip-rule="evenodd" d="M20.2284 19.1484C20.7294 19.1023 20.9216 19.3211 20.805 19.8047C20.749 19.8773 20.6798 19.932 20.5974 19.9687C20.0054 20.0078 19.6902 20.3281 19.6517 20.9297C19.3903 21.3047 19.1289 21.3047 18.8675 20.9297C18.8474 19.9583 19.301 19.3646 20.2284 19.1484Z" fill="#FAFF00"/>
</g>
<defs>
<clipPath id="clip0_0_11">
<rect width="23.2301" height="23.6048" fill="white" transform="scale(1.01675)"/>
</clipPath>
</defs>
</svg>
